<?xml version="1.0" encoding="UTF-8" standalone="no"?>
<svg
   width="440"
   height="371"
   viewBox="0 0 440 371"
   fill="none"
   version="1.1"
   id="svg162"
   sodipodi:docname="home_calculator_edit.svg"
   inkscape:version="1.2.1 (9c6d41e410, 2022-07-14)"
   xmlns:inkscape="http://www.inkscape.org/namespaces/inkscape"
   xmlns:sodipodi="http://sodipodi.sourceforge.net/DTD/sodipodi-0.dtd"
   xmlns="http://www.w3.org/2000/svg"
   xmlns:svg="http://www.w3.org/2000/svg">
  <sodipodi:namedview
     id="namedview164"
     pagecolor="#505050"
     bordercolor="#eeeeee"
     borderopacity="1"
     inkscape:showpageshadow="0"
     inkscape:pageopacity="0"
     inkscape:pagecheckerboard="0"
     inkscape:deskcolor="#505050"
     showgrid="false"
     inkscape:zoom="1.5952786"
     inkscape:cx="274.87361"
     inkscape:cy="184.29382"
     inkscape:window-width="1920"
     inkscape:window-height="1017"
     inkscape:window-x="1912"
     inkscape:window-y="-8"
     inkscape:window-maximized="1"
     inkscape:current-layer="g152" />
  <g
     clip-path="url(#clip0_3_58)"
     id="g152">
    <g
       clip-path="url(#clip1_3_58)"
       id="g92">
      <path
         d="M269 372.55C269 374.91 256.698 377.067 236.358 378.733C232.659 379.032 228.695 379.317 224.491 379.585C220.859 379.814 217.053 380.031 213.071 380.234C209.214 380.427 205.208 380.605 201.055 380.77C187.94 381.296 173.44 381.674 158.036 381.863C154.298 381.911 150.51 381.947 146.672 381.973C142.674 381.998 138.631 382.009 134.541 382.007C60.2812 382.007 0.0848618 377.778 0.0848618 372.56C0.0848618 367.342 60.2812 363.114 134.541 363.114C166.512 363.114 195.872 363.9 218.948 365.206L221.471 365.35H221.486C250.554 367.078 269 369.678 269 372.55Z"
         fill="#3F3D56"
         fill-opacity="0.7"
         id="path84" />
      <path
         opacity="0.15"
         d="M269 372.55C269 374.91 256.698 377.067 236.358 378.733C232.659 379.032 228.695 379.317 224.491 379.585C220.859 379.814 217.053 380.031 213.071 380.234C209.214 380.427 205.208 380.605 201.055 380.77C187.94 381.296 173.44 381.674 158.036 381.863C154.298 381.911 150.51 381.947 146.672 381.973C142.674 381.998 138.631 382.009 134.541 382.007C60.2812 382.007 0.0848618 377.778 0.0848618 372.56C0.0848618 367.342 60.2812 363.114 134.541 363.114C166.512 363.114 195.872 363.9 218.948 365.206L221.471 365.35H221.486C250.554 367.078 269 369.678 269 372.55Z"
         fill="black"
         fill-opacity="0.7"
         id="path86" />
      <path
         d="M257.915 370.887C257.915 372.859 245.613 374.666 225.273 376.04C221.576 376.291 217.61 376.528 213.409 376.751C209.775 376.943 205.969 377.124 201.989 377.294C198.131 377.454 194.126 377.604 189.973 377.744C176.855 378.184 162.355 378.5 146.951 378.658C143.216 378.697 139.428 378.726 135.587 378.747C131.589 378.768 127.547 378.778 123.459 378.778C49.1988 378.778 -11 375.243 -11 370.877C-11 366.511 49.1988 362.976 123.459 362.976C155.427 362.976 184.787 363.632 207.863 364.725L210.386 364.845H210.403C239.481 366.312 257.915 368.472 257.915 370.887Z"
         fill="#2F2E41"
         fill-opacity="0.7"
         id="path88" />
      <path
         d="M143.914 338.81C144.38 338.81 144.759 338.276 144.759 337.618C144.759 336.96 144.38 336.426 143.914 336.426C143.447 336.426 143.069 336.96 143.069 337.618C143.069 338.276 143.447 338.81 143.914 338.81Z"
         fill="#E8E8F0"
         id="path90" />
    </g>
    <path
       d="M 424.625,370.781 H 263.619 c -8.478,0 -15.375,-7.307 -15.375,-16.288 V 16.2884 C 248.244,7.30713 255.141,0 263.619,0 H 424.625 C 433.103,0 440,7.30713 440,16.2884 V 354.493 c 0,8.981 -6.897,16.288 -15.375,16.288 z"
       fill="#c9c9cf"
       id="path3898"
       style="display:inline;fill:#ffffff"
       sodipodi:nodetypes="sssssssss" />
    <path
       d="M 424.625,370.781 H 263.619 c -8.478,0 -15.375,-7.307 -15.375,-16.288 V 16.2884 C 248.244,7.30713 255.141,0 263.619,0 H 424.625 C 433.103,0 440,7.30713 440,16.2884 V 354.493 c 0,8.981 -6.897,16.288 -15.375,16.288 z M 263.619,1.65159 c -7.63,0 -13.816,6.55296 -13.816,14.63641 v 338.205 c 0,8.083 6.186,14.636 13.816,14.636 h 161.006 c 7.63,0 13.816,-6.553 13.816,-14.636 V 124.451 C 438.441,56.6307 386.544,1.65159 322.526,1.65159 Z"
       fill="#c9c9cf"
       id="path94"
       style="display:inline"
       sodipodi:insensitive="true" />
    <path
       d="M293.974 166.908C304.306 166.908 312.682 158.034 312.682 147.089C312.682 136.143 304.306 127.27 293.974 127.27C283.642 127.27 275.266 136.143 275.266 147.089C275.266 158.034 283.642 166.908 293.974 166.908Z"
       fill="#C9C9CF"
       id="path96" />
    <path
       d="M394.269 166.908C404.601 166.908 412.977 158.034 412.977 147.089C412.977 136.143 404.601 127.27 394.269 127.27C383.937 127.27 375.562 136.143 375.562 147.089C375.562 158.034 383.937 166.908 394.269 166.908Z"
       fill="#C9C9CF"
       id="path98" />
    <path
       d="M344.122 166.908C354.454 166.908 362.83 158.034 362.83 147.089C362.83 136.143 354.454 127.27 344.122 127.27C333.79 127.27 325.414 136.143 325.414 147.089C325.414 158.034 333.79 166.908 344.122 166.908Z"
       fill="#C9C9CF"
       id="path100" />
    <path
       d="M293.974 223.887C304.306 223.887 312.682 215.014 312.682 204.068C312.682 193.123 304.306 184.249 293.974 184.249C283.642 184.249 275.266 193.123 275.266 204.068C275.266 215.014 283.642 223.887 293.974 223.887Z"
       fill="#C9C9CF"
       id="path102" />
    <path
       d="M394.269 223.887C404.601 223.887 412.977 215.014 412.977 204.068C412.977 193.123 404.601 184.249 394.269 184.249C383.937 184.249 375.562 193.123 375.562 204.068C375.562 215.014 383.937 223.887 394.269 223.887Z"
       fill="#C9C9CF"
       id="path104" />
    <path
       d="M344.122 223.887C354.454 223.887 362.83 215.014 362.83 204.068C362.83 193.123 354.454 184.249 344.122 184.249C333.79 184.249 325.414 193.123 325.414 204.068C325.414 215.014 333.79 223.887 344.122 223.887Z"
       fill="#C9C9CF"
       id="path106" />
    <path
       d="M293.974 280.867C304.306 280.867 312.682 271.994 312.682 261.048C312.682 250.102 304.306 241.229 293.974 241.229C283.642 241.229 275.266 250.102 275.266 261.048C275.266 271.994 283.642 280.867 293.974 280.867Z"
       fill="#C9C9CF"
       id="path108" />
    <path
       d="M393.887 337.749C404.219 337.749 412.595 328.876 412.595 317.93C412.595 306.984 404.219 298.111 393.887 298.111C383.555 298.111 375.179 306.984 375.179 317.93C375.179 328.876 383.555 337.749 393.887 337.749Z"
       fill="#C9C9CF"
       id="path110" />
    <path
       d="M319.445 337.749C343.768 337.749 363.486 328.876 363.486 317.93C363.486 306.984 343.768 298.111 319.445 298.111C295.122 298.111 275.404 306.984 275.404 317.93C275.404 328.876 295.122 337.749 319.445 337.749Z"
       fill="#C9C9CF"
       id="path112" />
    <path
       d="M394.269 280.867C404.601 280.867 412.977 271.994 412.977 261.048C412.977 250.102 404.601 241.229 394.269 241.229C383.937 241.229 375.562 250.102 375.562 261.048C375.562 271.994 383.937 280.867 394.269 280.867Z"
       fill="#C9C9CF"
       id="path114" />
    <path
       d="M344.122 280.867C354.454 280.867 362.83 271.994 362.83 261.048C362.83 250.102 354.454 241.229 344.122 241.229C333.79 241.229 325.414 250.102 325.414 261.048C325.414 271.994 333.79 280.867 344.122 280.867Z"
       fill="#C9C9CF"
       id="path116" />
    <path
       d="M347.798 23.1222H168.878C163.573 23.1222 159.259 27.6924 159.259 33.3128V102.943C159.259 108.563 163.573 113.134 168.878 113.134H347.798C353.104 113.134 357.418 108.563 357.418 102.943V33.3128C357.418 27.6924 353.104 23.1222 347.798 23.1222Z"
       fill="white"
       id="path118" />
    <path
       d="M347.798 23.1222H168.878C163.573 23.1222 159.259 27.6924 159.259 33.3128V102.943C159.259 108.563 163.573 113.134 168.878 113.134H347.798C353.104 113.134 357.418 108.563 357.418 102.943V33.3128C357.418 27.6924 353.104 23.1222 347.798 23.1222ZM356.406 102.943C356.406 107.974 352.547 112.062 347.798 112.062H168.878C164.129 112.062 160.27 107.974 160.27 102.943V33.3128C160.27 28.2818 164.129 24.1938 168.878 24.1938H347.798C352.547 24.1938 356.406 28.2818 356.406 33.3128V102.943Z"
       fill="#3F3D56"
       id="path120" />
    <path
       d="M337.847 65.2376H178.83C177.323 65.2376 176.101 66.5316 176.101 68.1279C176.101 69.7242 177.323 71.0182 178.83 71.0182H337.847C339.353 71.0182 340.575 69.7242 340.575 68.1279C340.575 66.5316 339.353 65.2376 337.847 65.2376Z"
       fill="#0756E4"
       id="path122" />
    <path
       d="M52.9684 148.991L51.3747 159.044L65.5075 195.465L73.0901 191.335L65.7099 157.253L64.6492 144.246L52.9684 148.991Z"
       fill="#A0616A"
       id="path124" />
    <path
       d="M68.5692 92.4298C68.5692 92.4298 61.1697 88.6325 55.428 101.463C49.6863 114.294 50.3973 142.434 50.3973 142.434C50.3973 142.434 48.3066 144.543 49.6338 146.02C50.9609 147.496 52.1982 149.84 50.8444 152.541C50.1308 153.965 48.4794 156.75 51.1837 157.541C53.8881 158.332 66.5382 154.594 66.5382 154.594C66.5382 154.594 71.2684 152.35 68.5807 150.838C65.8931 149.326 69.6784 140.181 69.6784 140.181L72.806 113.762L68.5692 92.4298Z"
       fill="#0756E4"
       id="path126" />
    <path
       d="M74.3791 209.38C77.3492 208.414 78.5116 203.335 76.9756 198.035C75.4395 192.736 71.7866 189.223 68.8166 190.19C65.8466 191.156 64.6841 196.235 66.2202 201.534C67.7562 206.833 71.4091 210.346 74.3791 209.38Z"
       fill="#A0616A"
       id="path128" />
    <path
       d="M144.423 365.471L151.506 363.457L147.545 333.556L137.091 336.529L144.423 365.471Z"
       fill="#A0616A"
       id="path130" />
    <path
       d="M168.647 358.403C168.967 358.733 169.405 359.97 169.521 360.428C169.877 361.834 169.09 363.281 167.762 363.658L145.827 369.893C144.922 370.151 143.99 369.582 143.747 368.622L143.502 367.655C143.502 367.655 141.681 365.055 143.007 360.836C143.007 360.836 146.494 362.853 149.53 357.279L150.159 354.583L160.753 358.927L165.824 358.172C166.934 358.006 167.845 357.574 168.647 358.403H168.647Z"
       fill="#2F2E41"
       id="path132" />
    <path
       d="M74.9963 365.298L82.3297 365.298L85.8183 335.331L74.9948 335.332L74.9963 365.298Z"
       fill="#A0616A"
       id="path134" />
    <path
       d="M100.122 365.122C100.35 365.53 100.47 366.845 100.47 367.318C100.47 368.775 99.356 369.955 97.9813 369.955H75.2706C74.3328 369.955 73.5726 369.15 73.5726 368.156V367.155C73.5726 367.155 72.4491 364.144 74.7622 360.433C74.7622 360.433 77.637 363.339 81.9327 358.788L83.1995 356.357L92.3691 363.461L97.4517 364.124C98.5637 364.269 99.5495 364.102 100.122 365.122Z"
       fill="#2F2E41"
       id="path136" />
    <path
       d="M123.802 186.798L143.085 274.855L152.395 346.004L137.766 348.117L97.2034 226.952L87.8941 348.117L71.2702 349.526C71.2702 349.526 57.9711 205.819 63.9557 188.207L123.802 186.798Z"
       fill="#2F2E41"
       id="path138" />
    <path
       d="M146.755 82.6739L153.409 75.3088L161.049 36.7717L152.587 35.6707L140.603 68.2521L134.577 79.6405L146.755 82.6739Z"
       fill="#A0616A"
       id="path140" />
    <path
       d="M103.837 120.157C103.837 120.157 110.064 132.321 121.621 125.13C133.179 117.939 145.402 89.6274 145.402 89.6274C145.402 89.6274 147.843 82.4304 150.396 81.003C151.741 80.2506 155.204 79.4393 153.387 77.1742C151.571 74.9091 138.507 69.9573 138.507 69.9573C138.507 69.9573 133.404 68.9964 134.824 71.8475C136.244 74.6986 131.58 72.9325 132.05 75.9499C132.521 78.9673 128.261 80.0071 128.261 80.0071L103.837 120.157H103.837Z"
       fill="#0756E4"
       id="path142" />
    <path
       d="M163.681 31.328C165.223 26.0307 164.066 20.9501 161.097 19.9802C158.128 19.0102 154.471 22.5183 152.929 27.8156C151.387 33.1129 152.544 38.1934 155.513 39.1634C158.482 40.1333 162.139 36.6253 163.681 31.328Z"
       fill="#A0616A"
       id="path144" />
    <path
       d="M104.663 78.0155H86.4572L85.7204 84.0967C85.7204 84.0967 62.7593 90.7861 63.3333 94.4348C63.9074 98.0835 67.3515 158.896 67.3515 158.896L64.4814 189.302C64.4814 189.302 116.144 212.41 124.18 185.045L120.162 153.423C120.162 153.423 129.921 99.2998 127.624 96.8673C125.328 94.4348 106.385 84.7049 106.385 84.7049L104.663 78.0155L104.663 78.0155Z"
       fill="#0756E4"
       id="path146" />
    <path
       d="M94.088 78.0913C103.113 78.0913 110.429 70.3405 110.429 60.7794C110.429 51.2183 103.113 43.4675 94.088 43.4675C85.0629 43.4675 77.7467 51.2183 77.7467 60.7794C77.7467 70.3405 85.0629 78.0913 94.088 78.0913Z"
       fill="#A0616A"
       id="path148" />
    <path
       d="M106.19 53.6582C108.278 53.4712 110.366 53.2842 112.454 53.0972C111.736 52.7485 110.989 52.3753 110.511 51.7095C110.032 51.0439 109.934 49.9922 110.511 49.4219C111.186 48.7555 112.304 49.1085 113.042 49.6956C112.636 47.4487 111.37 45.39 109.594 44.0884C107.424 42.4985 102.057 44.3943 99.4421 44.0293C96.4245 43.6082 96.0478 40.8826 93.0302 40.4615C91.8929 40.3028 90.6128 40.183 89.7184 40.9443C88.7264 41.7885 88.6151 43.3846 87.7399 44.3631C86.4903 45.7601 84.3486 45.348 82.5703 45.741C80.0515 46.2978 78.1528 48.6376 77.2758 51.2003C76.3989 53.763 76.3666 56.5503 76.3442 59.2761C76.3192 62.331 76.3101 65.8675 78.3957 67.9773C79.6663 69.2627 83.1274 73.6729 83.5015 75.4916C83.7672 76.7831 94.5966 78.3562 96.9438 78.2846L104.944 75.4916C105.73 71.8239 104.429 64.5685 102.56 61.371C103.176 62.2323 106.022 64.8255 106.458 63.8484C106.893 62.8713 106.695 59.8089 107.237 58.8936C107.921 57.7384 104.908 53.773 106.19 53.6582V53.6582Z"
       fill="#2F2E41"
       id="path150" />
  </g>
  <defs
     id="defs160">
    <clipPath
       id="clip0_3_58">
      <rect
         width="440"
         height="371"
         fill="white"
         id="rect154" />
    </clipPath>
    <clipPath
       id="clip1_3_58">
      <rect
         width="280"
         height="228"
         fill="white"
         transform="translate(-11 154)"
         id="rect157" />
    </clipPath>
  </defs>
</svg>
